<svg width="24" height="24" viewBox="0 0 24 24" fill="none" xmlns="http://www.w3.org/2000/svg">
<path d="M16.6667 4H17C17.5522 4 18 3.55225 18 3C18 2.44775 17.5522 2 17 2H7C6.44775 2 6 2.44775 6 3C6 3.55225 6.44775 4 7 4H7.33333V20H7C6.44775 20 6 20.4478 6 21C6 21.5522 6.44775 22 7 22H17C17.5522 22 18 21.5522 18 21C18 20.4478 17.5522 20 17 20H16.6667V4ZM7 3.33333C6.81592 3.33333 6.66667 3.18408 6.66667 3C6.66667 2.81592 6.81592 2.66667 7 2.66667H17C17.1841 2.66667 17.3333 2.81592 17.3333 3C17.3333 3.18408 17.1841 3.33333 17 3.33333H7ZM8 4H16V5.33333H8V4ZM8 6H16V7.33333H8V6ZM8 8H16V16.6667H8V8ZM8 17.3333H16V18H8V17.3333ZM17 20.6667C17.1841 20.6667 17.3333 20.8159 17.3333 21C17.3333 21.1841 17.1841 21.3333 17 21.3333H7C6.81592 21.3333 6.66667 21.1841 6.66667 21C6.66667 20.8159 6.81592 20.6667 7 20.6667H17ZM16 20H8V18.6667H16V20Z" fill="#EB8028"/>
<path d="M15.0002 11H13.1383L14.9026 9.23564C14.9978 9.14026 15.0264 8.99687 14.9748 8.87236C14.9232 8.74784 14.8017 8.66663 14.6669 8.66663H11.3336C11.2196 8.66663 11.1135 8.72473 11.0522 8.82092L8.71882 12.4876C8.65355 12.5903 8.64932 12.7203 8.70792 12.8271C8.76651 12.9337 8.87849 13 9.00023 13H11.2512L10.6749 15.5944C10.6423 15.7413 10.7123 15.8921 10.8458 15.9619C10.9792 16.0317 11.143 16.0034 11.2452 15.8927L15.2452 11.5594C15.335 11.462 15.3586 11.3208 15.3056 11.1995C15.2524 11.0783 15.1326 11 15.0002 11V11ZM11.5938 14.5333L11.9939 12.74C12.0162 12.6409 11.9923 12.5369 11.9285 12.4578C11.8648 12.3785 11.7685 12.3328 11.6669 12.3333H9.60749L11.5165 9.33329H13.8622L12.0979 11.0976C12.0027 11.193 11.974 11.3364 12.0256 11.4609C12.0772 11.5854 12.1988 11.6666 12.3336 11.6666H14.2388L11.5938 14.5333Z" fill="#EB8028"/>
</svg>
