<svg width="24" height="24" viewBox="0 0 24 24" fill="none" xmlns="http://www.w3.org/2000/svg">
<path d="M21.7634 12.1829L20.3333 11.7476V8.50267C20.3333 8.31862 20.1841 8.1694 20.0001 8.1694H18.0005C17.8164 8.1694 17.6672 8.31862 17.6672 8.50267V10.9355L14.3345 9.92199V8.83594H17.0007C17.1509 8.83594 17.2827 8.73554 17.3222 8.59054C17.3619 8.44572 17.2996 8.2921 17.1704 8.21578L9.8385 3.88329H9.83541C9.83541 3.88329 9.77081 3.85416 9.7547 3.84993C9.72638 3.84375 9.69774 3.83936 9.66878 3.83691C9.63997 3.8387 9.6115 3.84245 9.58318 3.84798C9.56707 3.85221 9.50247 3.88118 9.50214 3.88118H9.49921L2.16732 8.21366C2.03584 8.28933 1.97188 8.44409 2.01175 8.59038C2.05162 8.73667 2.18522 8.83757 2.33688 8.83594H5.00303V20.1671H20.9999V12.8352H21.6664C21.8318 12.8353 21.972 12.7144 21.9964 12.5509C22.0207 12.3875 21.9216 12.2309 21.7634 12.1829V12.1829ZM18.3337 8.83594H19.6668V11.5447L18.3337 11.1392V8.83594ZM19.4261 12.1686H14.3345V10.619L19.4261 12.1686ZM14.0856 8.1694L10.002 5.9698V4.75438L15.7817 8.1694H14.0856ZM9.33551 4.75438V5.9698L5.252 8.1694H3.55605L9.33551 4.75438ZM13.668 19.5005H5.66956V8.70266L9.66878 6.54911L13.668 8.70266V19.5005ZM20.3333 19.5005H14.3345V12.8352H20.3333V19.5005Z" fill="#EB8028"/>
<path d="M6.66931 16.5012C6.73049 16.5012 6.79038 16.4843 6.84262 16.4525C7.26783 16.1826 7.67611 15.8864 8.06471 15.566C8.35616 15.6885 8.6699 15.7486 8.98592 15.7424C9.04613 15.7424 9.10715 15.7424 9.1698 15.7373C10.1558 15.6965 11.0848 15.2648 11.7517 14.5375C13.1417 12.826 12.9327 10.4934 12.9231 10.3951L12.8927 10.0835L12.5798 10.0941C12.4825 10.0975 10.176 10.1911 8.76624 11.6011C7.71647 12.6509 7.02357 14.2742 7.54023 15.1318C7.20615 15.402 6.85726 15.6532 6.49535 15.8846C6.36907 15.9629 6.30984 16.1154 6.3502 16.2584C6.39055 16.4014 6.52074 16.5005 6.66931 16.5012V16.5012ZM9.2375 12.0711C10.1686 11.1399 11.6234 10.8665 12.2703 10.7886C12.2722 11.4494 12.165 12.9675 11.2324 14.1167C10.6864 14.7001 9.93154 15.0436 9.13286 15.0718C8.97469 15.0811 8.81587 15.0744 8.659 15.0521C9.11529 14.6383 9.53871 14.1896 9.92535 13.7101C10.0404 13.5664 10.0171 13.3565 9.87344 13.2414C9.72959 13.1265 9.51983 13.1498 9.40478 13.2935C8.99796 13.7955 8.54915 14.2619 8.06308 14.6876C7.90247 14.1623 8.3573 12.9516 9.23782 12.0711H9.2375Z" fill="#EB8028"/>
<path d="M12.668 18.1675H6.66921C6.48516 18.1675 6.33594 18.3167 6.33594 18.5007C6.33594 18.6848 6.48516 18.834 6.66921 18.834H12.668C12.8521 18.834 13.0013 18.6848 13.0013 18.5007C13.0013 18.3167 12.8521 18.1675 12.668 18.1675Z" fill="#EB8028"/>
<path d="M15.3342 18.834H18.0004C18.1845 18.834 18.3337 18.6848 18.3337 18.5007C18.3337 18.3167 18.1845 18.1675 18.0004 18.1675H15.3342C15.1502 18.1675 15.001 18.3167 15.001 18.5007C15.001 18.6848 15.1502 18.834 15.3342 18.834Z" fill="#EB8028"/>
<path d="M19.097 18.7373C19.1294 18.7667 19.1667 18.7903 19.207 18.8073C19.2877 18.8429 19.3797 18.8429 19.4602 18.8073C19.544 18.777 19.6099 18.7111 19.6402 18.6273C19.6573 18.5873 19.6664 18.5443 19.6669 18.5007C19.6664 18.4794 19.6641 18.4582 19.6599 18.4374C19.6571 18.4152 19.6505 18.3938 19.6402 18.3741C19.6327 18.3528 19.6226 18.3326 19.6103 18.3137L19.5702 18.2641C19.4913 18.1863 19.379 18.1526 19.2703 18.1741C19.2482 18.1772 19.2269 18.1838 19.207 18.1941C19.1865 18.2008 19.1673 18.2109 19.1504 18.224C19.1312 18.2354 19.1133 18.2489 19.097 18.2641L19.057 18.3137C19.0444 18.3324 19.0344 18.3528 19.027 18.3741C19.0169 18.3939 19.0101 18.4152 19.007 18.4374C19.0031 18.4582 19.001 18.4794 19.0003 18.5007C18.9992 18.5445 19.0083 18.5877 19.027 18.6273C19.044 18.6676 19.0677 18.7049 19.097 18.7373Z" fill="#EB8028"/>
</svg>
