<svg width="24" height="25" viewBox="0 0 24 25" fill="none" xmlns="http://www.w3.org/2000/svg">
<path d="M12.1155 2.99426H11.8847C9.24269 3.02475 6.72014 4.09958 4.86807 5.98398C3.01601 7.86838 1.98492 10.4092 2.00017 13.0513C2.01541 15.6934 3.07571 18.2222 4.94939 20.0851C6.82307 21.948 9.35782 22.9936 12 22.9936C14.6422 22.9936 17.1769 21.948 19.0506 20.0851C20.9243 18.2222 21.9846 15.6934 21.9998 13.0513C22.0151 10.4092 20.9842 7.86838 19.1321 5.98398C17.2801 4.09958 14.7575 3.02475 12.1155 2.99426ZM2.77691 13.4174H5.85384C5.87939 14.6865 6.06282 15.9474 6.39997 17.1712H3.75385C3.16153 16.0049 2.82827 14.7244 2.77691 13.4174ZM12.3769 8.13273V3.81732C14.1385 4.03271 15.6692 5.70196 16.5538 8.13273H12.3769ZM16.8077 8.90196C17.1561 10.1264 17.3449 11.3907 17.3692 12.6635H12.3769V8.90196H16.8077ZM11.6231 3.82502V8.14043H7.4385C8.36928 5.6635 9.86154 3.99426 11.6231 3.77887V3.82502ZM11.6231 8.90196V12.6481H6.63077C6.65514 11.3753 6.84387 10.111 7.1923 8.88656L11.6231 8.90196ZM5.86924 12.6635H2.79231C2.84114 11.3545 3.17174 10.0715 3.76155 8.90196H6.43076C6.08913 10.1226 5.90052 11.381 5.86924 12.6481V12.6635ZM6.63847 13.4327H11.6308V17.1866H7.2C6.84763 15.9602 6.65629 14.6931 6.63077 13.4174L6.63847 13.4327ZM11.6308 17.9481V22.2558C9.86924 22.0481 8.33852 20.3789 7.4539 17.9481H11.6308ZM12.4 22.2558V17.9481H16.5769C15.6615 20.3405 14.1385 21.9943 12.3769 22.202L12.4 22.2558ZM12.4 17.1866V13.4174H17.3923C17.368 14.6876 17.1792 15.9494 16.8308 17.1712L12.4 17.1866ZM18.1539 13.4327H21.2308C21.1818 14.7392 20.8512 16.0197 20.2615 17.1866H17.6C17.9332 15.9572 18.1115 14.691 18.1308 13.4174L18.1539 13.4327ZM18.1539 12.6635C18.1289 11.3918 17.9454 10.1282 17.6077 8.90196H20.2769C20.8668 10.0715 21.1974 11.3545 21.2462 12.6635H18.1539ZM19.8461 8.14043H17.3769C16.9156 6.68301 16.1017 5.36192 15.0076 4.29427C16.9969 4.9788 18.6948 6.31861 19.823 8.09425L19.8461 8.14043ZM9.07688 4.29427C7.98279 5.36192 7.16912 6.68301 6.70777 8.14043H4.23838C5.33919 6.33702 7.02551 4.96581 9.01547 4.25579L9.07688 4.29427ZM4.23838 17.9327H6.71547C7.17251 19.3939 7.9898 20.7166 9.09228 21.7789C7.05105 21.0967 5.31247 19.7226 4.17697 17.8943L4.23838 17.9327ZM15.0076 21.7789C16.1065 20.7137 16.9234 19.392 17.3846 17.9327H19.8615C18.7185 19.728 16.9903 21.0732 14.9693 21.7405L15.0076 21.7789Z" fill="#009900"/>
</svg>
